0
SECTION
2
HEADER
9
$INSUNITS
70
4
9
$ACADVER
1
AC1014
9
$HANDSEED
5
FFFF
0
ENDSEC
0
SECTION
2
TABLES
0
TABLE
2
VPORT
5
8
100
AcDbSymbolTable
0
ENDTAB
0
TABLE
2
LTYPE
5
5
100
AcDbSymbolTable
0
LTYPE
5
14
100
AcDbSymbolTableRecord
100
AcDbLinetypeTableRecord
2
BYBLOCK
70
0
0
LTYPE
5
15
100
AcDbSymbolTableRecord
100
AcDbLinetypeTableRecord
2
BYLAYER
70
0
0
ENDTAB
0
TABLE
2
LAYER
5
2
100
AcDbSymbolTable
70
2
0
LAYER
5
50
100
AcDbSymbolTableRecord
100
AcDbLayerTableRecord
2
0
70
0
6
CONTINUOUS
0
ENDTAB
0
TABLE
2
STYLE
5
3
100
AcDbSymbolTable
70
1
0
STYLE
5
11
100
AcDbSymbolTableRecord
100
AcDbTextStyleTableRecord
2
STANDARD
70
0
0
ENDTAB
0
TABLE
2
VIEW
5
6
100
AcDbSymbolTable
70
0
0
ENDTAB
0
TABLE
2
UCS
5
7
100
AcDbSymbolTable
70
0
0
ENDTAB
0
TABLE
2
APPID
5
9
100
AcDbSymbolTable
70
2
0
APPID
5
12
100
AcDbSymbolTableRecord
100
AcDbRegAppTableRecord
2
ACAD
70
0
0
ENDTAB
0
TABLE
2
DIMSTYLE
5
A
100
AcDbSymbolTable
70
1
0
ENDTAB
0
TABLE
2
BLOCK_RECORD
5
1
100
AcDbSymbolTable
70
1
0
BLOCK_RECORD
5
1F
100
AcDbSymbolTableRecord
100
AcDbBlockTableRecord
2
*MODEL_SPACE
0
BLOCK_RECORD
5
1B
100
AcDbSymbolTableRecord
100
AcDbBlockTableRecord
2
*PAPER_SPACE
0
ENDTAB
0
ENDSEC
0
SECTION
2
BLOCKS
0
BLOCK
5
20
100
AcDbEntity
100
AcDbBlockBegin
2
*MODEL_SPACE
0
ENDBLK
5
21
100
AcDbEntity
100
AcDbBlockEnd
0
BLOCK
5
1C
100
AcDbEntity
100
AcDbBlockBegin
2
*PAPER_SPACE
0
ENDBLK
5
1D
100
AcDbEntity
100
AcDbBlockEnd
0
ENDSEC
0
SECTION
2
ENTITIES
0
LWPOLYLINE
5
100
100
AcDbEntity
8
0
100
AcDbPolyline
90
64
70
1
43
0.0
10
-290.61200511446253
20
-2.3097088490806637
42
0.41421356237310503
10
-289.61200511446248
20
-3.309708849080641
10
-289.15961030960534
20
-3.3097088490806623
42
0.0078531710874659988
10
-289.11250000000007
20
-3.3104488253593272
10
-285.9625000000002
20
-3.3104488253593498
42
-0.41421356237312168
10
-283.98750000000001
20
-5.2854488253593326
10
-283.98750000000001
20
-5.8104488253593347
42
0.99999999999999989
10
-277.98750000000001
20
-5.8104488253593658
10
-277.98750000000007
20
-5.285448825359329
42
-0.41421356237308588
10
-276.01250000000005
20
-3.3104488253593156
10
-195.23125000000007
20
-3.3104488253593498
42
-0.41421356237312157
10
-193.25624999999999
20
-5.2854488253593317
10
-193.25624999999999
20
-5.8104488253593338
42
0.99999999999999989
10
-187.25624999999997
20
-5.810448825359364
10
-187.25625000000002
20
-5.2854488253593281
42
-0.41421356237308588
10
-185.28125
20
-3.3104488253593143
10
-105.23125000000002
20
-3.3104488253593245
42
-0.41421356237309848
10
-103.25625000000001
20
-5.2854488253593281
10
-103.25625000000001
20
-5.8104488253593303
42
0.99999999999999989
10
-97.256249999999994
20
-5.8104488253593303
10
-97.256249999999966
20
-5.2854488253593264
42
-0.41421356237309642
10
-95.28125
20
-3.3104488253593312
10
-14.499999999999993
20
-3.3104488253593245
42
-0.41421356237309553
10
-12.524999999999993
20
-5.2854488253593281
10
-12.524999999999991
20
-5.8104488253593276
42
0.99999999999999989
10
-6.5250000000000004
20
-5.8104488253593267
10
-6.5249999999999977
20
-5.2854488253593246
42
-0.41421356237309498
10
-4.5499999999999972
20
-3.3104488253593258
10
-1.600000000000001
20
-3.3104488253593263
42
0.0078531710874907464
10
-1.5528896903948162
20
-3.3097088490806623
10
-1.0995051144624899
20
-3.3097088490806632
42
0.41421356237309553
10
-0.099505114462489497
20
-2.3097088490806588
10
-0.09950511446248908
20
95.70279115091941
42
0.41421356237309442
10
-1.0995051144624857
20
96.70279115091941
10
-4.6040588451212736
20
96.702791150919424
42
-0.40621815491117663
10
-6.5249999999999844
20
98.677051174640752
10
-6.5249999999999897
20
99.202051174640758
42
0.99999999999999989
10
-12.524999999999997
20
99.202051174640729
10
-12.524999999999991
20
98.677051174640724
42
-0.4062181549111516
10
-14.445941154878518
20
96.702791150919424
10
-71.432183845121273
20
96.702791150919381
42
-0.40621815491118135
10
-73.353124999999991
20
98.677051174640695
10
-73.353124999999991
20
99.202051174640715
42
0.99999999999999989
10
-79.353125000000006
20
99.202051174640729
10
-79.353125000000006
20
98.677051174640724
42
-0.40621815491118146
10
-81.274066154878724
20
96.702791150919381
10
-185.43218384512062
20
96.70279115091941
42
-0.40621815491127827
10
-187.35312499999998
20
98.67705117464071
10
-187.35312499999998
20
99.202051174640715
42
0.99999999999999989
10
-193.35312500000001
20
99.202051174640758
10
-193.35312500000001
20
98.677051174640724
42
-0.40621815491107155
10
-195.27406615487803
20
96.702791150919381
10
-277.80405884512072
20
96.70279115091941
42
-0.40621815491125757
10
-279.72500000000002
20
98.677051174640752
10
-279.72500000000002
20
99.202051174640758
42
0.99999999999999989
10
-285.72500000000002
20
99.202051174640715
10
-285.72500000000002
20
98.677051174640724
42
-0.40621815491106888
10
-287.64594115487802
20
96.702791150919424
10
-289.61200511446248
20
96.702791150919424
42
0.41421356237308982
10
-290.61200511446253
20
95.70279115091941
10
-290.61200511446253
20
95.24057923845055
42
0.0064221385351098123
10
-290.61250000000007
20
95.202051174640744
10
-290.61250000000007
20
-1.8104488253593232
42
0.0064221385350838774
10
-290.61200511446253
20
-1.8489768891690712
0
LWPOLYLINE
5
101
100
AcDbEntity
8
0
100
AcDbPolyline
90
9
70
1
43
0.0
10
-178.83749999999998
20
74.627051174640727
10
-178.83750000000006
20
61.605550633257721
42
-0.40124031025753276
10
-179.33700511446247
20
61.127791150919386
10
-192.3370051144625
20
61.127791150919407
42
-0.41421356237312101
10
-192.83700511446253
20
61.627791150919393
10
-192.83700511446253
20
74.627791150919393
42
-0.14821573636358548
10
-192.75287061606139
20
74.90538056818869
42
-0.25013900222672403
10
-192.33750000000001
20
75.127051174640727
10
-179.33750000000001
20
75.127051174640727
42
-0.41421356237313145
0
LWPOLYLINE
5
102
100
AcDbEntity
8
0
100
AcDbPolyline
90
9
70
1
43
0.0
10
-197.88749999999999
20
74.627051174640727
10
-197.88750000000005
20
61.605550633258524
42
-0.40124031025799206
10
-198.38700511446248
20
61.127791150919393
10
-211.38700511446245
20
61.127791150919407
42
-0.41421356237312101
10
-211.88700511446245
20
61.627791150919393
10
-211.88700511446245
20
74.627791150919393
42
-0.14821573637193816
10
-211.80287061605213
20
74.905380568202489
42
-0.25013900221790442
10
-211.38749999999999
20
75.127051174640727
10
-198.38750000000002
20
75.127051174640727
42
-0.41421356237313145
0
LWPOLYLINE
5
103
100
AcDbEntity
8
0
100
AcDbPolyline
90
9
70
1
43
0.0
10
-216.9375
20
74.627051174640727
10
-216.93750000000006
20
61.605550633258524
42
-0.40124031025799206
10
-217.43700511446249
20
61.127791150919393
10
-230.43700511446247
20
61.127791150919407
42
-0.41421356237312101
10
-230.93700511446247
20
61.627791150919393
10
-230.93700511446247
20
74.627791150919393
42
-0.14821573637193816
10
-230.85287061605214
20
74.905380568202489
42
-0.25013900221790442
10
-230.4375
20
75.127051174640727
10
-217.43750000000003
20
75.127051174640727
42
-0.41421356237313145
0
LWPOLYLINE
5
104
100
AcDbEntity
8
0
100
AcDbPolyline
90
9
70
1
43
0.0
10
-243.13125000000002
20
74.627051174640727
10
-243.13125000000002
20
61.605550633259327
42
-0.40124031025845136
10
-243.63075511446254
20
61.127791150919393
10
-256.63075511446254
20
61.127791150919407
42
-0.41421356237312101
10
-257.13075511446254
20
61.627791150919393
10
-257.13075511446254
20
74.627791150919393
42
-0.14821573637193816
10
-257.04662061605222
20
74.905380568202489
42
-0.25013900221790442
10
-256.63125000000002
20
75.127051174640727
10
-243.63125000000002
20
75.127051174640712
42
-0.41421356237312101
0
LWPOLYLINE
5
105
100
AcDbEntity
8
0
100
AcDbPolyline
90
9
70
1
43
0.0
10
-245.51249999999999
20
93.677051174640752
10
-245.51249999999999
20
80.655550633259139
42
-0.4012403102583732
10
-246.01200511446251
20
80.17779115091939
10
-259.01200511446245
20
80.177791150919404
42
-0.4142135623730846
10
-259.51200511446251
20
80.67779115091939
10
-259.51200511446251
20
93.677791150919418
42
-0.14821573637199659
10
-259.42787061605213
20
93.955380568202457
42
-0.25013900221798591
10
-259.01249999999999
20
94.177051174640752
10
-246.01249999999999
20
94.177051174640738
42
-0.4142135623730846
0
LWPOLYLINE
5
106
100
AcDbEntity
8
0
100
AcDbPolyline
90
9
70
1
43
0.0
10
-155.02500000000001
20
93.677051174640752
10
-155.02500000000001
20
80.655550633258741
42
-0.40124031025814616
10
-155.5245051144625
20
80.17779115091939
10
-168.5245051144625
20
80.177791150919404
42
-0.4142135623730846
10
-169.0245051144625
20
80.67779115091939
10
-169.02450511446256
20
93.677791150919418
42
-0.14821573637199659
10
-168.94037061605218
20
93.955380568202457
42
-0.25013900221798591
10
-168.52500000000003
20
94.177051174640752
10
-155.52500000000003
20
94.177051174640752
42
-0.41421356237307422
0
LWPOLYLINE
5
107
100
AcDbEntity
8
0
100
AcDbPolyline
90
28
70
1
43
0.0
10
-139.47499999999997
20
80.177051174640695
10
-139.47499999999999
20
78.655550633258713
42
-0.40124031025811568
10
-139.97450511446249
20
78.17779115091939
10
-145.97450511446249
20
78.17779115091939
42
-0.41421356237307944
10
-146.47450511446249
20
78.677791150919404
10
-146.47450511446249
20
92.677791150919404
42
-0.14821573636785548
10
-146.39037061605677
20
92.955380568195636
42
-0.2501390022223442
10
-145.97499999999999
20
93.177051174640738
10
-140.44999999999999
20
93.177051174640724
10
-140.44999999999999
20
93.177791150919404
10
-140.44950511446248
20
93.17779115091939
10
-140.44950511446248
20
93.677791150919404
42
-0.14821573636777891
10
-140.36537061605677
20
93.955380568195594
42
-0.25013900222229346
10
-139.94999999999999
20
94.177051174640752
10
-126.92231267592204
20
94.177051174640738
42
-0.39836505911484532
10
-126.44950511446248
20
93.677791150919404
10
-126.44950511446248
20
93.17779115091939
10
-124.06874999999999
20
93.177791150919404
10
-124.06874999999999
20
93.177051174640738
10
-120.92500000000001
20
93.177051174640738
42
-0.41421356237307422
10
-120.42500000000001
20
92.677051174640738
10
-120.42500000000003
20
78.655550633258727
42
-0.40124031025812085
10
-120.92450511446251
20
78.17779115091939
10
-126.92450511446251
20
78.17779115091939
42
-0.41421356237307944
10
-127.42450511446252
20
78.677791150919404
10
-127.42450511446252
20
80.177791150919404
10
-139.47450511446246
20
80.17779115091939
10
-139.47450511446246
20
80.177051174640695
0
LWPOLYLINE
5
108
100
AcDbEntity
8
0
100
AcDbPolyline
90
9
70
1
43
0.0
10
-97.875
20
93.677051174640752
10
-97.875
20
80.655550633258741
42
-0.40124031025814616
10
-98.374505114462494
20
80.17779115091939
10
-111.37450511446248
20
80.17779115091939
42
-0.4142135623730534
10
-111.87450511446249
20
80.67779115091939
10
-111.87450511446249
20
93.677791150919418
42
-0.14821573636776983
10
-111.79037061605678
20
93.955380568195594
42
-0.25013900222229346
10
-111.375
20
94.177051174640752
10
-98.375
20
94.177051174640752
42
-0.4142135623730534
0
LWPOLYLINE
5
109
100
AcDbEntity
8
0
100
AcDbPolyline
90
8
70
1
43
0.0
10
-197.88749999999999
20
93.677791150919404
10
-197.88749999999999
20
80.655550633258315
42
-0.40124031025788809
10
-198.38700511446248
20
80.17779115091939
10
-216.14950511446253
20
80.177791150919404
42
-0.4142135623730846
10
-216.64950511446253
20
80.67779115091939
10
-216.64950511446256
20
93.677791150919418
42
-0.41421356237307422
10
-216.14950511446253
20
94.177791150919404
10
-198.38750000000002
20
94.177791150919404
42
-0.41421356237309503
0
LWPOLYLINE
5
110
100
AcDbEntity
8
0
100
AcDbPolyline
90
11
70
1
43
0.0
10
-50.249505114462487
20
93.676791150919399
10
-50.249505114462465
20
80.677791150919376
42
-0.414213562373069
10
-50.74950511446248
20
80.17779115091939
10
-68.512005114462497
20
80.177791150919404
42
-0.41421356237307944
10
-69.012005114462497
20
80.67779115091939
10
-69.012005114462497
20
93.677791150919418
42
-0.14821573636777072
10
-68.927870616056794
20
93.955380568195608
42
-0.25013900222232849
10
-68.512500000000003
20
94.177051174640752
10
-55.512005114462482
20
94.177051174640752
10
-55.512005114462475
20
94.176791150919428
10
-50.74950511446248
20
94.176791150919399
42
-0.41421356237309503
0
LWPOLYLINE
5
111
100
AcDbEntity
8
0
100
AcDbPolyline
90
13
70
1
43
0.0
10
-221.69969354091938
20
36.527258003163993
10
-221.69969354091936
20
23.528258003163977
42
-0.41421356237305079
10
-222.19969354091938
20
23.02825800316398
10
-226.94040339477147
20
23.02825800316398
42
-0.010804643121587089
10
-226.9620051144625
20
23.027791150919352
10
-239.96200511446247
20
23.027791150919334
42
-0.41421356237310025
10
-240.46200511446247
20
23.527791150919349
10
-240.46200511446247
20
36.527791150919363
42
-0.14821573637268293
10
-240.37787061605141
20
36.805380568203596
42
-0.25013900221717994
10
-239.96250000000001
20
37.027051174640697
10
-226.96683376408427
20
37.027051174640718
10
-226.96683376408424
20
37.027258003163993
10
-222.19969354091938
20
37.027258003163965
42
-0.41421356237309503
0
LWPOLYLINE
5
112
100
AcDbEntity
8
0
100
AcDbPolyline
90
13
70
1
43
0.0
10
-245.51219354091933
20
36.527258003163993
10
-245.51219354091938
20
23.528258003163977
42
-0.41421356237305079
10
-246.01219354091938
20
23.02825800316398
10
-250.75290339477141
20
23.02825800316398
42
-0.010804643121587089
10
-250.77450511446244
20
23.027791150919352
10
-263.7745051144625
20
23.027791150919334
42
-0.41421356237310025
10
-264.2745051144625
20
23.527791150919349
10
-264.2745051144625
20
36.527791150919363
42
-0.14821573636425683
10
-264.19037061606059
20
36.805380568189833
42
-0.25013900222599827
10
-263.77499999999992
20
37.027051174640697
10
-250.77827160151151
20
37.027051174640725
10
-250.77827160151151
20
37.027258003163993
10
-246.01219354091938
20
37.027258003164036
42
-0.41421356237309503
0
LWPOLYLINE
5
113
100
AcDbEntity
8
0
100
AcDbPolyline
90
8
70
1
43
0.0
10
-73.299505114462491
20
78.17779115091939
10
-79.299505114462491
20
78.17779115091939
42
-0.41421356237311585
10
-79.799505114462491
20
78.677791150919404
10
-79.799505114462505
20
92.677791150919404
42
-0.41421356237308982
10
-79.299505114462491
20
93.177791150919433
10
-73.299505114462491
20
93.177791150919404
42
-0.41421356237307944
10
-72.799505114462477
20
92.677791150919418
10
-72.799505114462477
20
78.677791150919404
42
-0.41421356237312101
0
LWPOLYLINE
5
114
100
AcDbEntity
8
0
100
AcDbPolyline
90
8
70
1
43
0.0
10
-128.83075511446248
20
12.715291150919349
42
0.41421356237307555
10
-129.33075511446251
20
13.215291150919358
10
-142.33075511446251
20
13.21529115091935
42
0.41421356237307422
10
-142.83075511446251
20
12.715291150919352
10
-142.83075511446251
20
-0.28470884908066041
42
0.41421356237307372
10
-142.33075511446251
20
-0.78470884908066763
10
-129.33075511446251
20
-0.78470884908065996
42
0.41421356237307305
10
-128.83075511446248
20
-0.28470884908066152
0
LWPOLYLINE
5
115
100
AcDbEntity
8
0
100
AcDbPolyline
90
8
70
1
43
0.0
10
-193.12450511446247
20
12.71529115091935
42
0.41421356237312235
10
-193.62450511446247
20
13.215291150919333
10
-206.62450511446252
20
13.21529115091935
42
0.41421356237304691
10
-207.12450511446249
20
12.71529115091935
10
-207.12450511446252
20
-0.2847088490806593
42
0.41421356237310186
10
-206.62450511446252
20
-0.78470884908066707
10
-193.62450511446247
20
-0.78470884908065996
42
0.41421356237302537
10
-193.12450511446252
20
-0.2847088490806593
0
LWPOLYLINE
5
116
100
AcDbEntity
8
0
100
AcDbPolyline
90
8
70
1
43
0.0
10
-109.78075511446248
20
12.715291150919349
42
0.41421356237307555
10
-110.28075511446248
20
13.215291150919358
10
-123.28075511446249
20
13.215291150919349
42
0.41421356237307422
10
-123.78075511446249
20
12.71529115091935
10
-123.78075511446249
20
-0.28470884908065985
42
0.41421356237307372
10
-123.28075511446249
20
-0.78470884908066041
10
-110.28075511446248
20
-0.78470884908066063
42
0.41421356237307339
10
-109.78075511446248
20
-0.28470884908066152
0
LWPOLYLINE
5
117
100
AcDbEntity
8
0
100
AcDbPolyline
90
8
70
1
43
0.0
10
-167.4307551144625
20
-0.7847088490806603
10
-180.43075511446247
20
-0.78470884908067862
42
-0.41421356237310186
10
-180.93075511446247
20
-0.28470884908065985
10
-180.93075511446247
20
12.71529115091935
42
-0.41421356237304691
10
-180.43075511446247
20
13.21529115091935
10
-167.4307551144625
20
13.215291150919333
42
-0.41421356237312235
10
-166.9307551144625
20
12.71529115091935
10
-166.93075511446253
20
-0.28470884908066146
42
-0.41421356237302409
0
LWPOLYLINE
5
118
100
AcDbEntity
8
0
100
AcDbPolyline
90
8
70
1
43
0.0
10
-194.09950511446249
20
78.677791150919404
10
-194.09950511446254
20
92.677791150919404
42
-0.41421356237309503
10
-193.59950511446249
20
93.177791150919433
10
-187.59950511446249
20
93.177791150919404
42
-0.4142135623730846
10
-187.09950511446249
20
92.677791150919418
10
-187.09950511446243
20
78.677791150919404
42
-0.41421356237313145
10
-187.59950511446249
20
78.17779115091939
10
-193.59950511446249
20
78.177791150919447
42
-0.41421356237312623
0
LWPOLYLINE
5
119
100
AcDbEntity
8
0
100
AcDbPolyline
90
10
70
1
43
0.0
10
-225.67500000000001
20
13.214551174640681
42
0.25013900222634194
10
-226.09037061606102
20
12.992880568189239
42
0.14821573636390453
10
-226.17450511446251
20
12.71529115091935
10
-226.17450511446253
20
-0.28470884908065985
42
0.41421356237310186
10
-225.67450511446253
20
-0.78470884908066763
10
-212.67450511446248
20
-0.78470884908065996
42
0.25013900221753005
10
-212.25913449841073
20
-0.56303824264299496
42
0.14821573637229504
10
-212.17500000000001
20
-0.28544882535932459
10
-212.17500000000001
20
12.714551174640683
42
0.41421356237313406
10
-212.67500000000001
20
13.214551174640681
0
LWPOLYLINE
5
120
100
AcDbEntity
8
0
100
AcDbPolyline
90
10
70
1
43
0.0
10
-20.887500000000006
20
37.027051174640704
42
0.25013900221974444
10
-21.302870616054083
20
36.805380568199595
42
0.14821573637027322
10
-21.38700511446249
20
36.527791150919363
10
-21.38700511446249
20
23.527791150919349
42
0.41421356237309503
10
-20.88700511446249
20
23.027791150919352
10
-7.8870051144624842
20
23.027791150919349
42
0.25013900221973362
10
-7.4716344984084104
20
23.249461757360464
42
0.14821573637026511
10
-7.3874999999999966
20
23.52705117464069
10
-7.3875000000000011
20
36.527051174640704
42
0.41421356237309825
10
-7.8875000000000028
20
37.02705117464069
0
LWPOLYLINE
5
121
100
AcDbEntity
8
0
100
AcDbPolyline
90
10
70
1
43
0.0
10
-101.84999999999999
20
37.027051174640704
42
0.25013900222160901
10
-102.26537061605598
20
36.805380568196703
42
0.14821573636848739
10
-102.34950511446249
20
36.52779115091937
10
-102.34950511446249
20
23.527791150919356
42
0.41421356237307422
10
-101.84950511446247
20
23.027791150919356
10
-88.849505114462488
20
23.027791150919356
42
0.25013900222155266
10
-88.434134498406479
20
23.249461757363346
42
0.14821573636848159
10
-88.350000000000009
20
23.52705117464069
10
-88.349999999999994
20
36.527051174640704
42
0.41421356237307422
10
-88.849999999999994
20
37.027051174640711
0
LWPOLYLINE
5
122
100
AcDbEntity
8
0
100
AcDbPolyline
90
10
70
1
43
0.0
10
-116.13749999999999
20
75.127051174640727
42
0.25013900222085556
10
-116.55287061605522
20
74.905380568197884
42
0.14821573636929203
10
-116.6370051144625
20
74.627791150919393
10
-116.6370051144625
20
61.627791150919379
42
0.41421356237307944
10
-116.13700511446248
20
61.127791150919386
10
-103.13700511446248
20
61.127791150919386
42
0.25013900222082391
10
-102.72163449840725
20
61.349461757362214
42
0.14821573636914434
10
-102.63749999999999
20
61.627051174640719
10
-102.63749999999999
20
74.627051174640727
42
0.41421356237309503
10
-103.13749999999999
20
75.127051174640741
0
LWPOLYLINE
5
123
100
AcDbEntity
8
0
100
AcDbPolyline
90
10
70
1
43
0.0
10
-287.58749999999998
20
56.077051174640715
42
0.25013900221790436
10
-288.00287061605212
20
55.855380568202477
42
0.14821573637193808
10
-288.08700511446239
20
55.577791150919388
10
-288.08700511446239
20
42.577791150919367
42
0.41421356237310025
10
-287.58700511446244
20
42.077791150919396
10
-274.58700511446244
20
42.077791150919374
42
0.25013900221784113
10
-274.1716344984103
20
42.299461757357591
42
0.14821573637189214
10
-274.08749999999998
20
42.577051174640701
10
-274.08749999999998
20
55.577051174640715
42
0.41421356237313145
10
-274.58749999999998
20
56.077051174640715
0
LWPOLYLINE
5
124
100
AcDbEntity
8
0
100
AcDbPolyline
90
10
70
1
43
0.0
10
-36.469250000000002
20
77.127051174640741
42
0.25013900221974344
10
-36.884620616054079
20
76.905380568199618
42
0.14821573637026741
10
-36.968755114462482
20
76.627791150919393
10
-36.968755114462482
20
62.627791150919379
42
0.41421356237309764
10
-36.468755114462482
20
62.127791150919379
10
-30.468755114462489
20
62.127791150919371
42
0.2501390022197249
10
-30.05338449840842
20
62.349461757360487
42
0.14821573637026525
10
-29.969250000000009
20
62.627051174640719
10
-29.969250000000006
20
76.627051174640727
42
0.41421356237309503
10
-30.469249999999999
20
77.127051174640712
0
LWPOLYLINE
5
125
100
AcDbEntity
8
0
100
AcDbPolyline
90
10
70
1
43
0.0
10
-260.30675000000002
20
55.077051174640708
42
0.25013900222672791
10
-260.72212061606143
20
54.855380568188679
42
0.14821573636358629
10
-260.80625511446249
20
54.577791150919381
10
-260.80625511446254
20
40.577791150919381
42
0.41421356237312623
10
-260.30625511446254
20
40.077791150919367
10
-254.30625511446252
20
40.077791150919381
42
0.25013900221784113
10
-253.89088449841037
20
40.299461757357598
42
0.14821573637189214
10
-253.80675000000002
20
40.577051174640708
10
-253.80675000000002
20
54.577051174640715
42
0.41421356237313667
10
-254.30675000000005
20
55.077051174640708
0
LWPOLYLINE
5
126
100
AcDbEntity
8
0
100
AcDbPolyline
90
10
70
1
43
0.0
10
-58.987499999999997
20
13.214551174640686
42
0.25013900222159252
10
-59.402870616056006
20
12.992880568196695
42
0.14821573636847524
10
-59.487005114462491
20
12.71529115091935
10
-59.487005114462491
20
-0.28470884908066096
42
0.41421356237310336
10
-58.987005114462491
20
-0.78470884908066096
10
-45.987005114462477
20
-0.78470884908066063
42
0.25013900222140212
10
-45.571634498406667
20
-0.5630382426369609
42
0.14821573636870766
10
-45.487499999999983
20
-0.28544882535932237
10
-45.487499999999983
20
12.714551174640684
42
0.41421356237310414
10
-45.98749999999999
20
13.214551174640691
0
LWPOLYLINE
5
127
100
AcDbEntity
8
0
100
AcDbPolyline
90
10
70
1
43
0.0
10
-144.71250000000001
20
56.077051174640715
42
0.25013900222085556
10
-145.12787061605525
20
55.855380568197873
42
0.14821573636929203
10
-145.2120051144625
20
55.577791150919381
10
-145.2120051144625
20
42.57779115091936
42
0.41421356237307422
10
-144.7120051144625
20
42.077791150919367
10
-131.7120051144625
20
42.077791150919367
42
0.25013900222083957
10
-131.29663449840729
20
42.299461757362202
42
0.14821573636917895
10
-131.21250000000001
20
42.577051174640701
10
-131.21250000000001
20
55.577051174640715
42
0.41421356237309503
10
-131.71250000000001
20
56.077051174640722
0
LWPOLYLINE
5
128
100
AcDbEntity
8
0
100
AcDbPolyline
90
10
70
1
43
0.0
10
-201.86250000000001
20
56.077051174640715
42
0.25013900222672403
10
-202.27787061606139
20
55.855380568188686
42
0.14821573636358551
10
-202.36200511446248
20
55.577791150919388
10
-202.36200511446253
20
42.577791150919367
42
0.41421356237312623
10
-201.86200511446253
20
42.077791150919374
10
-188.86200511446248
20
42.077791150919367
42
0.25013900221642232
10
-188.4466344984119
20
42.299461757355303
42
0.14821573637359067
10
-188.36250000000001
20
42.577051174640701
10
-188.36250000000001
20
55.577051174640715
42
0.41421356237313145
10
-188.86250000000001
20
56.077051174640722
0
LWPOLYLINE
5
129
100
AcDbEntity
8
0
100
AcDbPolyline
90
10
70
1
43
0.0
10
-6.5927551144624825
20
62.127791150919379
42
0.25013900221972785
10
-6.1773844984084114
20
62.349461757360487
42
0.14821573637028213
10
-6.0932499999999843
20
62.627051174640719
10
-6.0932499999999976
20
76.627051174640727
42
0.4142135623730957
10
-6.5932499999999923
20
77.127051174640712
10
-12.593250000000003
20
77.127051174640741
42
0.25013900221974406
10
-13.008620616054083
20
76.905380568199618
42
0.1482157363702738
10
-13.092755114462493
20
76.627791150919393
10
-13.092755114462484
20
62.627791150919379
42
0.41421356237309764
10
-12.592755114462486
20
62.127791150919379
0
LWPOLYLINE
5
130
100
AcDbEntity
8
0
100
AcDbPolyline
90
10
70
1
43
0.0
10
-3.1245051144624814
20
-0.7847088490806613
42
0.25013900222011254
10
-2.7091344984080208
20
-0.56303824263897406
42
0.14821573636991692
10
-2.6249999999999925
20
-0.28544882535932237
10
-2.6249999999999969
20
12.714551174640684
42
0.41421356237309825
10
-3.125
20
13.214551174640686
10
-16.125000000000004
20
13.214551174640686
42
0.25013900222011204
10
-16.540370616054464
20
12.992880568198997
42
0.14821573636992594
10
-16.624505114462487
20
12.715291150919349
10
-16.624505114462487
20
-0.28470884908066041
42
0.41421356237309559
10
-16.124505114462487
20
-0.78470884908066096
0
LWPOLYLINE
5
131
100
AcDbEntity
8
0
100
AcDbPolyline
90
8
70
1
43
0.0
10
-97.087005114462499
20
13.215291150919349
42
0.41421356237310675
10
-97.587005114462499
20
12.715291150919349
10
-97.587005114462499
20
-0.28470884908066041
42
0.41421356237309453
10
-97.087005114462499
20
-0.78470884908066041
10
-84.087005114462499
20
-0.78470884908066063
42
0.41421356237307339
10
-83.587005114462499
20
-0.28470884908066152
10
-83.587005114462499
20
12.715291150919349
42
0.41421356237307555
10
-84.087005114462499
20
13.215291150919356
0
LWPOLYLINE
5
132
100
AcDbEntity
8
0
100
AcDbPolyline
90
10
70
1
43
0.0
10
-69.799505114462491
20
23.027791150919352
42
0.25013900222085034
10
-69.384134498407263
20
23.249461757362191
42
0.1482157363691817
10
-69.299999999999997
20
23.52705117464069
10
-69.299999999999997
20
36.527051174640704
42
0.41421356237310281
10
-69.800000000000011
20
37.027051174640697
10
-82.799999999999997
20
37.027051174640704
42
0.25013900222159069
10
-83.215370616055992
20
36.805380568196718
42
0.14821573636844512
10
-83.299505114462491
20
36.52779115091937
10
-83.299505114462491
20
23.527791150919356
42
0.41421356237309503
10
-82.799505114462477
20
23.027791150919349
0
LWPOLYLINE
5
133
100
AcDbEntity
8
0
100
AcDbPolyline
90
10
70
1
43
0.0
10
-238.86825511446247
20
42.077791150919374
42
0.25013900221784768
10
-238.4528844984103
20
42.299461757357584
42
0.14821573637188576
10
-238.36874999999998
20
42.577051174640701
10
-238.36874999999998
20
55.577051174640715
42
0.41421356237313145
10
-238.86875000000001
20
56.077051174640715
10
-251.86874999999998
20
56.077051174640715
42
0.25013900221790436
10
-252.28412061605212
20
55.855380568202477
42
0.14821573637193813
10
-252.3682551144625
20
55.577791150919388
10
-252.36825511446244
20
42.577791150919367
42
0.41421356237312623
10
-251.86825511446244
20
42.077791150919367
0
LWPOLYLINE
5
134
100
AcDbEntity
8
0
100
AcDbPolyline
90
10
70
1
43
0.0
10
-274.58700511446244
20
80.17779115091939
42
0.25013900221789653
10
-274.1716344984103
20
80.399461757357628
42
0.1482157363719542
10
-274.08749999999998
20
80.677051174640724
10
-274.08749999999998
20
93.677051174640752
42
0.41421356237309503
10
-274.58749999999998
20
94.177051174640752
10
-287.58749999999998
20
94.177051174640752
42
0.25013900221798596
10
-288.00287061605212
20
93.955380568202457
42
0.14821573637199656
10
-288.0870051144625
20
93.677791150919418
10
-288.08700511446239
20
80.67779115091939
42
0.41421356237309503
10
-287.58700511446244
20
80.177791150919418
0
LWPOLYLINE
5
135
100
AcDbEntity
8
0
100
AcDbPolyline
90
10
70
1
43
0.0
10
-65.037005114462488
20
-0.78470884908066074
42
0.25013900222148683
10
-64.621634498406578
20
-0.56303824263681368
42
0.14821573636856253
10
-64.537499999999994
20
-0.28544882535932237
10
-64.537499999999994
20
12.714551174640684
42
0.41421356237310414
10
-65.037499999999994
20
13.21455117464069
10
-78.037499999999994
20
13.214551174640683
42
0.25013900222159058
10
-78.452870616056003
20
12.992880568196695
42
0.14821573636847324
10
-78.537005114462488
20
12.715291150919349
10
-78.537005114462488
20
-0.28470884908066041
42
0.41421356237310336
10
-78.037005114462488
20
-0.78470884908066096
0
LWPOLYLINE
5
136
100
AcDbEntity
8
0
100
AcDbPolyline
90
10
70
1
43
0.0
10
-55.512005114462482
20
42.077791150919367
42
0.25013900222084046
10
-55.096634498407255
20
42.299461757362202
42
0.14821573636917368
10
-55.012499999999989
20
42.577051174640701
10
-55.012499999999989
20
55.577051174640715
42
0.41421356237311063
10
-55.512499999999996
20
56.077051174640722
10
-68.512499999999989
20
56.077051174640715
42
0.2501390022208545
10
-68.92787061605523
20
55.855380568197887
42
0.14821573636922086
10
-69.012005114462497
20
55.577791150919381
10
-69.012005114462497
20
42.57779115091936
42
0.41421356237311063
10
-68.512005114462497
20
42.077791150919353
0
LWPOLYLINE
5
137
100
AcDbEntity
8
0
100
AcDbPolyline
90
10
70
1
43
0.0
10
-150.76200511446248
20
42.077791150919367
42
0.25013900222084356
10
-150.34663449840724
20
42.299461757362209
42
0.14821573636917521
10
-150.26249999999999
20
42.577051174640701
10
-150.26249999999999
20
55.577051174640715
42
0.41421356237309503
10
-150.76249999999999
20
56.077051174640722
10
-163.76249999999999
20
56.077051174640715
42
0.25013900222530056
10
-164.17787061605986
20
55.855380568190981
42
0.14821573636498095
10
-164.26200511446245
20
55.577791150919381
10
-164.26200511446251
20
42.57779115091936
42
0.41421356237312101
10
-163.76200511446251
20
42.077791150919367
0
LWPOLYLINE
5
138
100
AcDbEntity
8
0
100
AcDbPolyline
90
10
70
1
43
0.0
10
-207.91200511446249
20
42.077791150919374
42
0.25013900221784768
10
-207.49663449841029
20
42.299461757357584
42
0.14821573637188576
10
-207.41250000000002
20
42.577051174640701
10
-207.41250000000002
20
55.577051174640715
42
0.41421356237313145
10
-207.91250000000002
20
56.077051174640722
10
-220.91250000000002
20
56.077051174640715
42
0.25013900222672403
10
-221.3278706160614
20
55.855380568188686
42
0.14821573636358551
10
-221.41200511446249
20
55.577791150919388
10
-221.41200511446254
20
42.577791150919367
42
0.41421356237312623
10
-220.91200511446254
20
42.077791150919367
0
LWPOLYLINE
5
139
100
AcDbEntity
8
0
100
AcDbPolyline
90
10
70
1
43
0.0
10
-169.81200511446247
20
42.077791150919367
42
0.25013900221642232
10
-169.39663449841188
20
42.299461757355303
42
0.14821573637359067
10
-169.3125
20
42.577051174640701
10
-169.3125
20
55.577051174640715
42
0.41421356237313145
10
-169.8125
20
56.077051174640722
10
-182.8125
20
56.077051174640715
42
0.25013900222530056
10
-183.22787061605987
20
55.855380568190981
42
0.14821573636498095
10
-183.31200511446247
20
55.577791150919381
10
-183.31200511446252
20
42.57779115091936
42
0.41421356237312101
10
-182.81200511446252
20
42.077791150919367
0
LWPOLYLINE
5
140
100
AcDbEntity
8
0
100
AcDbPolyline
90
10
70
1
43
0.0
10
-274.58700511446244
20
61.127791150919393
42
0.25013900221784768
10
-274.1716344984103
20
61.349461757357602
42
0.14821573637188576
10
-274.08749999999998
20
61.627051174640719
10
-274.08749999999998
20
74.627051174640727
42
0.41421356237313145
10
-274.58749999999998
20
75.127051174640741
10
-287.58749999999998
20
75.127051174640727
42
0.25013900221790436
10
-288.00287061605212
20
74.905380568202489
42
0.14821573637193808
10
-288.08700511446239
20
74.627791150919393
10
-288.08700511446239
20
61.627791150919393
42
0.41421356237310025
10
-287.58700511446244
20
61.127791150919421
0
LWPOLYLINE
5
141
100
AcDbEntity
8
0
100
AcDbPolyline
90
10
70
1
43
0.0
10
-107.8995051144625
20
23.027791150919356
42
0.25013900222155461
10
-107.48413449840649
20
23.249461757363349
42
0.14821573636847962
10
-107.40000000000001
20
23.52705117464069
10
-107.40000000000001
20
36.527051174640704
42
0.41421356237307422
10
-107.90000000000001
20
37.027051174640697
10
-120.90000000000001
20
37.027051174640704
42
0.25013900222161228
10
-121.315370616056
20
36.805380568196711
42
0.14821573636848434
10
-121.3995051144625
20
36.52779115091937
10
-121.3995051144625
20
23.527791150919356
42
0.41421356237307422
10
-120.89950511446249
20
23.027791150919349
0
LWPOLYLINE
5
142
100
AcDbEntity
8
0
100
AcDbPolyline
90
10
70
1
43
0.0
10
-122.18700511446249
20
61.127791150919386
42
0.25013900222082919
10
-121.77163449840725
20
61.349461757362214
42
0.14821573636913937
10
-121.6875
20
61.627051174640719
10
-121.6875
20
74.627051174640727
42
0.41421356237309503
10
-122.1875
20
75.127051174640727
10
-135.1875
20
75.127051174640727
42
0.25013900222085556
10
-135.60287061605524
20
74.905380568197884
42
0.14821573636929203
10
-135.68700511446249
20
74.627791150919393
10
-135.68700511446249
20
61.627791150919379
42
0.41421356237307944
10
-135.18700511446249
20
61.127791150919379
0
LWPOLYLINE
5
143
100
AcDbEntity
8
0
100
AcDbPolyline
90
10
70
1
43
0.0
10
-65.037005114462502
20
61.127791150919386
42
0.25013900222084851
10
-64.621634498407275
20
61.349461757362214
42
0.14821573636922838
10
-64.537499999999994
20
61.627051174640719
10
-64.537499999999994
20
74.627051174640727
42
0.41421356237311063
10
-65.037499999999994
20
75.127051174640727
10
-78.03749999999998
20
75.127051174640727
42
0.2501390022208545
10
-78.452870616055208
20
74.905380568197899
42
0.14821573636922086
10
-78.537005114462488
20
74.627791150919393
10
-78.537005114462488
20
61.627791150919379
42
0.41421356237311585
10
-78.037005114462488
20
61.127791150919386
0
LWPOLYLINE
5
144
100
AcDbEntity
8
0
100
AcDbPolyline
90
10
70
1
43
0.0
10
-165.04950511446256
20
23.027791150919349
42
0.25013900222598395
10
-164.63413449840192
20
23.249461757370227
42
0.14821573636427629
10
-164.55000000000001
20
23.527051174640686
10
-164.55000000000001
20
36.527051174640697
42
0.41421356237310025
10
-165.05000000000001
20
37.027051174640711
10
-178.05000000000004
20
37.027051174640697
42
0.25013900221717994
10
-178.46537061605144
20
36.805380568203596
42
0.14821573637268295
10
-178.54950511446253
20
36.527791150919363
10
-178.54950511446251
20
23.527791150919349
42
0.41421356237310025
10
-178.04950511446251
20
23.027791150919352
0
LWPOLYLINE
5
145
100
AcDbEntity
8
0
100
AcDbPolyline
90
10
70
1
43
0.0
10
-50.74950511446248
20
23.027791150919352
42
0.25013900222085034
10
-50.334134498407252
20
23.249461757362191
42
0.1482157363691817
10
-50.249999999999986
20
23.52705117464069
10
-50.249999999999986
20
36.527051174640704
42
0.41421356237310281
10
-50.749999999999993
20
37.027051174640697
10
-63.75
20
37.027051174640704
42
0.25013900222084046
10
-64.165370616055228
20
36.805380568197862
42
0.14821573636916907
10
-64.249505114462494
20
36.527791150919363
10
-64.249505114462494
20
23.527791150919349
42
0.41421356237310025
10
-63.749505114462494
20
23.027791150919352
0
LWPOLYLINE
5
146
100
AcDbEntity
8
0
100
AcDbPolyline
90
10
70
1
43
0.0
10
-84.087005114462499
20
61.127791150919386
42
0.25013900222082919
10
-83.671634498407258
20
61.349461757362214
42
0.14821573636913937
10
-83.587500000000006
20
61.627051174640719
10
-83.587500000000006
20
74.627051174640727
42
0.41421356237309503
10
-84.087500000000006
20
75.127051174640727
10
-97.087500000000006
20
75.127051174640727
42
0.2501390022208318
10
-97.502870616055219
20
74.905380568197899
42
0.14821573636915097
10
-97.587005114462485
20
74.627791150919393
10
-97.587005114462499
20
61.627791150919379
42
0.41421356237310025
10
-97.087005114462499
20
61.127791150919379
0
CIRCLE
5
147
100
AcDbEntity
8
0
100
AcDbCircle
10
-190.35312500000001
20
99.202051174640729
30
0
40
1.4999999999999869
210
-0
220
0
230
1
0
CIRCLE
5
148
100
AcDbEntity
8
0
100
AcDbCircle
10
-76.353125000000006
20
99.202051174640729
30
0
40
1.5000000000000047
210
-0
220
0
230
1
0
CIRCLE
5
149
100
AcDbEntity
8
0
100
AcDbCircle
10
-280.98750000000001
20
-5.8104488253593498
30
0
40
1.4999999999999869
210
-0
220
0
230
1
0
CIRCLE
5
150
100
AcDbEntity
8
0
100
AcDbCircle
10
-9.524999999999995
20
-5.8104488253593276
30
0
40
1.5000000000000013
210
-0
220
0
230
1
0
CIRCLE
5
151
100
AcDbEntity
8
0
100
AcDbCircle
10
-190.25624999999997
20
-5.8104488253593489
30
0
40
1.4999999999999869
210
-0
220
0
230
1
0
CIRCLE
5
152
100
AcDbEntity
8
0
100
AcDbCircle
10
-100.25624999999999
20
-5.8104488253593303
30
0
40
1.5000000000000047
210
-0
220
0
230
1
0
LWPOLYLINE
5
153
100
AcDbEntity
8
0
100
AcDbPolyline
90
9
70
1
43
0.0
10
-82.324505114462482
20
92.677791150919418
42
0.39836505911484482
10
-82.797312675922043
20
93.177051174640752
10
-88.825000000000003
20
93.177051174640738
42
0.25013900222234414
10
-89.240370616056765
20
92.955380568195636
42
0.14821573636785551
10
-89.324505114462497
20
92.677791150919404
10
-89.324505114462497
20
78.677791150919404
42
0.41421356237307944
10
-88.824505114462497
20
78.17779115091939
10
-82.824505114462497
20
78.17779115091939
42
0.41421356237310542
10
-82.324505114462482
20
78.677791150919404
0
LWPOLYLINE
5
154
100
AcDbEntity
8
0
100
AcDbPolyline
90
10
70
1
43
0.0
10
-230.43025511446245
20
40.077791150919381
42
0.25013900221784768
10
-230.01488449841025
20
40.299461757357591
42
0.14821573637188576
10
-229.93074999999999
20
40.577051174640708
10
-229.93074999999999
20
54.577051174640715
42
0.41421356237313667
10
-230.43074999999999
20
55.077051174640708
10
-236.43074999999999
20
55.077051174640708
42
0.25013900221790042
10
-236.84612061605213
20
54.85538056820247
42
0.14821573637194885
10
-236.93025511446251
20
54.577791150919381
10
-236.93025511446248
20
40.577791150919381
42
0.41421356237312623
10
-236.43025511446245
20
40.077791150919367
0
LWPOLYLINE
5
155
100
AcDbEntity
8
0
100
AcDbPolyline
90
10
70
1
43
0.0
10
-177.57450511446248
20
92.677791150919418
42
0.37558056461914269
10
-178.00786496282771
20
93.173330342295969
42
0.030527736492667355
10
-178.06875000000002
20
93.177051174640738
10
-184.07499999999999
20
93.177051174640738
42
0.25013900222672797
10
-184.49037061606137
20
92.95538056818873
42
0.14821573636354787
10
-184.57450511446245
20
92.677791150919404
10
-184.57450511446251
20
78.677791150919404
42
0.41421356237312623
10
-184.07450511446251
20
78.17779115091939
10
-178.07450511446248
20
78.17779115091939
42
0.41421356237313145
10
-177.57450511446251
20
78.677791150919404
0
CIRCLE
5
156
100
AcDbEntity
8
0
100
AcDbCircle
10
-9.5249999999999932
20
99.202051174640729
30
0
40
1.5000000000000002
210
-0
220
0
230
1
0
CIRCLE
5
157
100
AcDbEntity
8
0
100
AcDbCircle
10
-282.72500000000002
20
99.202051174640729
30
0
40
1.4999999999999869
210
-0
220
0
230
1
0
LWPOLYLINE
5
158
100
AcDbEntity
8
0
100
AcDbPolyline
90
10
70
1
43
0.0
10
-141.23700511446251
20
61.127791150919386
42
0.25013900222082919
10
-140.82163449840726
20
61.349461757362214
42
0.14821573636913937
10
-140.73750000000001
20
61.627051174640719
10
-140.73750000000001
20
74.627051174640727
42
0.41421356237309503
10
-141.23750000000001
20
75.127051174640727
10
-154.23750000000001
20
75.127051174640727
42
0.25013900222085556
10
-154.65287061605525
20
74.905380568197884
42
0.14821573636929203
10
-154.73700511446251
20
74.627791150919393
10
-154.73700511446251
20
61.627791150919379
42
0.41421356237307944
10
-154.23700511446251
20
61.127791150919379
0
LWPOLYLINE
5
159
100
AcDbEntity
8
0
100
AcDbPolyline
90
10
70
1
43
0.0
10
-184.09950511446249
20
23.027791150919352
42
0.25013900221720464
10
-183.68413449841114
20
23.249461757356435
42
0.14821573637266089
10
-183.59999999999999
20
23.527051174640686
10
-183.59999999999999
20
36.527051174640697
42
0.41421356237313145
10
-184.09999999999999
20
37.027051174640711
10
-197.09999999999997
20
37.027051174640697
42
0.25013900222599827
10
-197.51537061606061
20
36.805380568189825
42
0.14821573636425686
10
-197.59950511446249
20
36.527791150919363
10
-197.59950511446252
20
23.527791150919349
42
0.41421356237310025
10
-197.09950511446252
20
23.027791150919342
0
LWPOLYLINE
5
160
100
AcDbEntity
8
0
100
AcDbPolyline
90
10
70
1
43
0.0
10
-112.66200511446249
20
42.077791150919367
42
0.25013900222084356
10
-112.24663449840726
20
42.299461757362209
42
0.14821573636917521
10
-112.16249999999999
20
42.577051174640701
10
-112.16249999999999
20
55.577051174640715
42
0.41421356237309503
10
-112.66249999999999
20
56.077051174640715
10
-125.66249999999999
20
56.077051174640715
42
0.25013900222085556
10
-126.07787061605522
20
55.855380568197873
42
0.14821573636929203
10
-126.1620051144625
20
55.577791150919381
10
-126.1620051144625
20
42.57779115091936
42
0.41421356237307422
10
-125.66200511446249
20
42.077791150919353
0
LWPOLYLINE
5
161
100
AcDbEntity
8
0
100
AcDbPolyline
90
10
70
1
43
0.0
10
-203.1495051144625
20
23.027791150919352
42
0.25013900221720464
10
-202.73413449841115
20
23.249461757356435
42
0.14821573637266089
10
-202.65000000000001
20
23.527051174640686
10
-202.65000000000001
20
36.527051174640697
42
0.41421356237313145
10
-203.15000000000001
20
37.027051174640697
10
-216.14999999999998
20
37.027051174640697
42
0.25013900222599827
10
-216.56537061606062
20
36.805380568189825
42
0.14821573636425686
10
-216.6495051144625
20
36.527791150919363
10
-216.64950511446253
20
23.527791150919349
42
0.41421356237310025
10
-216.14950511446253
20
23.027791150919342
0
LWPOLYLINE
5
162
100
AcDbEntity
8
0
100
AcDbPolyline
90
10
70
1
43
0.0
10
-126.9495051144625
20
23.027791150919356
42
0.25013900222157087
10
-126.53413449840649
20
23.249461757363342
42
0.14821573636845417
10
-126.44999999999999
20
23.52705117464069
10
-126.44999999999999
20
36.527051174640704
42
0.41421356237309503
10
-126.95
20
37.027051174640697
10
-139.94999999999999
20
37.027051174640704
42
0.25013900222161228
10
-140.36537061605597
20
36.805380568196711
42
0.14821573636848434
10
-140.44950511446248
20
36.52779115091937
10
-140.44950511446248
20
23.527791150919356
42
0.41421356237307422
10
-139.94950511446245
20
23.027791150919349
0
LWPOLYLINE
5
163
100
AcDbEntity
8
0
100
AcDbPolyline
90
10
70
1
43
0.0
10
-160.28700511446246
20
61.127791150919386
42
0.25013900221641377
10
-159.87163449841182
20
61.3494617573553
42
0.14821573637345881
10
-159.78749999999997
20
61.627051174640719
10
-159.78749999999997
20
74.627051174640727
42
0.41421356237309503
10
-160.28749999999999
20
75.127051174640741
10
-173.28749999999999
20
75.127051174640727
42
0.25013900222530056
10
-173.70287061605984
20
74.905380568190992
42
0.14821573636498095
10
-173.78700511446249
20
74.627791150919393
10
-173.78700511446252
20
61.627791150919379
42
0.41421356237312623
10
-173.28700511446249
20
61.127791150919379
0
LWPOLYLINE
5
164
100
AcDbEntity
8
0
100
AcDbPolyline
90
10
70
1
43
0.0
10
-7.8870051144624886
20
80.17779115091939
42
0.25013900222120278
10
-7.4716344984068686
20
80.399461757362786
42
0.14821573636886406
10
-7.3874999999999966
20
80.677051174640724
10
-7.3875000000000011
20
93.677051174640752
42
0.41421356237307683
10
-7.8875000000000028
20
94.177051174640752
10
-20.88750000000001
20
94.177051174640752
42
0.25013900222126489
10
-21.302870616055628
20
93.955380568197313
42
0.14821573636886268
10
-21.38700511446249
20
93.677791150919418
10
-21.38700511446249
20
80.67779115091939
42
0.41421356237307422
10
-20.88700511446249
20
80.17779115091939
0
LWPOLYLINE
5
165
100
AcDbEntity
8
0
100
AcDbPolyline
90
10
70
1
43
0.0
10
-5.5057551144624828
20
42.077791150919367
42
0.25013900221974628
10
-5.090384498408409
20
42.299461757360476
42
0.14821573637027047
10
-5.0062499999999952
20
42.577051174640701
10
-5.0062499999999996
20
55.577051174640715
42
0.41421356237309698
10
-5.5062500000000014
20
56.077051174640715
10
-23.268749999999997
20
56.077051174640715
42
0.2501390022197319
10
-23.684120616054066
20
55.855380568199607
42
0.14821573637025826
10
-23.768255114462484
20
55.577791150919381
10
-23.768255114462484
20
42.57779115091936
42
0.41421356237309503
10
-23.268255114462484
20
42.077791150919367
0
LWPOLYLINE
5
166
100
AcDbEntity
8
0
100
AcDbPolyline
90
10
70
1
43
0.0
10
-74.562005114462494
20
42.077791150919367
42
0.25013900222084046
10
-74.146634498407266
20
42.299461757362202
42
0.14821573636917368
10
-74.0625
20
42.577051174640701
10
-74.0625
20
55.577051174640715
42
0.41421356237311063
10
-74.5625
20
56.077051174640722
10
-87.5625
20
56.077051174640715
42
0.2501390022208318
10
-87.977870616055213
20
55.855380568197887
42
0.14821573636915097
10
-88.062005114462494
20
55.577791150919381
10
-88.062005114462494
20
42.57779115091936
42
0.41421356237309503
10
-87.562005114462494
20
42.077791150919367
0
LWPOLYLINE
5
167
100
AcDbEntity
8
0
100
AcDbPolyline
90
10
70
1
43
0.0
10
-93.612005114462505
20
42.077791150919367
42
0.25013900222084356
10
-93.196634498407292
20
42.299461757362209
42
0.14821573636917521
10
-93.112500000000011
20
42.577051174640701
10
-93.112500000000011
20
55.577051174640715
42
0.41421356237309503
10
-93.612500000000011
20
56.077051174640715
10
-106.61250000000001
20
56.077051174640715
42
0.2501390022208318
10
-107.02787061605522
20
55.855380568197887
42
0.14821573636915097
10
-107.11200511446251
20
55.577791150919381
10
-107.11200511446251
20
42.57779115091936
42
0.41421356237309503
10
-106.61200511446251
20
42.077791150919353
0
LWPOLYLINE
5
168
100
AcDbEntity
8
0
100
AcDbPolyline
90
10
70
1
43
0.0
10
-274.58700511446244
20
23.027791150919352
42
0.25013900221720464
10
-274.17163449841109
20
23.249461757356435
42
0.14821573637266089
10
-274.08749999999998
20
23.527051174640686
10
-274.08749999999998
20
36.527051174640697
42
0.41421356237313145
10
-274.58749999999998
20
37.027051174640697
10
-287.58749999999998
20
37.027051174640697
42
0.25013900221717994
10
-288.00287061605138
20
36.805380568203596
42
0.14821573637268307
10
-288.08700511446239
20
36.527791150919363
10
-288.08700511446239
20
23.527791150919349
42
0.41421356237309764
10
-287.58700511446244
20
23.027791150919352
0
LWPOLYLINE
5
169
100
AcDbEntity
8
0
100
AcDbPolyline
90
10
70
1
43
0.0
10
-36.462005114462492
20
42.077791150919367
42
0.25013900221975854
10
-36.046634498408423
20
42.29946175736049
42
0.14821573637027946
10
-35.962500000000013
20
42.577051174640701
10
-35.962500000000006
20
55.577051174640715
42
0.41421356237309243
10
-36.462500000000006
20
56.077051174640715
10
-49.462499999999999
20
56.077051174640715
42
0.2501390022208545
10
-49.877870616055233
20
55.855380568197887
42
0.14821573636922086
10
-49.962005114462507
20
55.577791150919381
10
-49.962005114462507
20
42.57779115091936
42
0.41421356237311063
10
-49.462005114462499
20
42.077791150919367
0
LWPOLYLINE
5
170
100
AcDbEntity
8
0
100
AcDbPolyline
90
10
70
1
43
0.0
10
-231.72450511446249
20
-0.78470884908065963
42
0.25013900221761626
10
-231.30913449841063
20
-0.56303824264286029
42
0.14821573637218632
10
-231.22500000000002
20
-0.28544882535932681
10
-231.22500000000002
20
12.714551174640681
42
0.41421356237313273
10
-231.72500000000002
20
13.214551174640681
10
-244.72500000000002
20
13.214551174640681
42
0.25013900222634577
10
-245.14037061606103
20
12.992880568189232
42
0.14821573636390076
10
-245.22450511446252
20
12.71529115091935
10
-245.22450511446254
20
-0.28470884908065985
42
0.41421356237310186
10
-244.72450511446254
20
-0.78470884908066707
0
LWPOLYLINE
5
171
100
AcDbEntity
8
0
100
AcDbPolyline
90
10
70
1
43
0.0
10
-145.99950511446249
20
23.027791150919356
42
0.25013900222157087
10
-145.58413449840651
20
23.249461757363342
42
0.14821573636845417
10
-145.5
20
23.52705117464069
10
-145.5
20
36.527051174640704
42
0.41421356237309503
10
-146
20
37.027051174640711
10
-159.00000000000003
20
37.027051174640697
42
0.25013900222161034
10
-159.41537061605604
20
36.805380568196703
42
0.14821573636848434
10
-159.49950511446252
20
36.527791150919363
10
-159.49950511446252
20
23.527791150919349
42
0.41421356237307161
10
-158.99950511446252
20
23.027791150919349
0
LWPOLYLINE
5
172
100
AcDbEntity
8
0
100
AcDbPolyline
90
8
70
1
43
0.0
10
-161.38075511446246
20
13.21529115091935
42
0.41421356237304691
10
-161.88075511446246
20
12.71529115091935
10
-161.88075511446246
20
-0.28470884908065985
42
0.41421356237310186
10
-161.38075511446246
20
-0.78470884908066763
10
-148.38075511446246
20
-0.78470884908065996
42
0.41421356237307305
10
-147.88075511446246
20
-0.28470884908066152
10
-147.88075511446246
20
12.71529115091935
42
0.41421356237307422
10
-148.38075511446246
20
13.21529115091935
0
LWPOLYLINE
5
173
100
AcDbEntity
8
0
100
AcDbPolyline
90
10
70
1
43
0.0
10
-31.69950511446249
20
23.027791150919349
42
0.25013900221973917
10
-31.284134498408417
20
23.249461757360464
42
0.14821573637027344
10
-31.20000000000001
20
23.52705117464069
10
-31.200000000000006
20
36.527051174640704
42
0.41421356237309243
10
-31.699999999999999
20
37.02705117464069
10
-44.700000000000003
20
37.027051174640704
42
0.25013900222084046
10
-45.115370616055237
20
36.805380568197862
42
0.14821573636916907
10
-45.199505114462504
20
36.527791150919363
10
-45.199505114462504
20
23.527791150919349
42
0.41421356237310025
10
-44.699505114462497
20
23.027791150919342
0
LWPOLYLINE
5
174
100
AcDbEntity
8
0
100
AcDbPolyline
90
10
70
1
43
0.0
10
-26.937005114462487
20
-0.7847088490806613
42
0.25013900222020219
10
-26.521634498407927
20
-0.56303824263882851
42
0.14821573636983895
10
-26.437500000000007
20
-0.28544882535932237
10
-26.437500000000004
20
12.714551174640684
42
0.4142135623730937
10
-26.937499999999996
20
13.214551174640686
10
-39.9375
20
13.214551174640686
42
0.25013900222046931
10
-40.352870616054844
20
12.992880568198421
42
0.14821573636954485
10
-40.43700511446248
20
12.715291150919352
10
-40.43700511446248
20
-0.28470884908066041
42
0.41421356237309431
10
-39.937005114462487
20
-0.7847088490806593
0
LWPOLYLINE
5
175
100
AcDbEntity
8
0
100
AcDbPolyline
90
10
70
1
43
0.0
10
-250.77450511446244
20
-0.78470884908066019
42
0.25013900221761626
10
-250.35913449841058
20
-0.56303824264286084
42
0.14821573637218663
10
-250.27499999999998
20
-0.28544882535932681
10
-250.27499999999998
20
12.714551174640681
42
0.41421356237313273
10
-250.77499999999998
20
13.214551174640688
10
-263.77499999999998
20
13.214551174640681
42
0.25013900222671176
10
-264.19037061606139
20
12.992880568188651
42
0.1482157363635756
10
-264.27450511446244
20
12.715291150919352
10
-264.2745051144625
20
-0.2847088490806593
42
0.41421356237310186
10
-263.7745051144625
20
-0.78470884908066707
0
LWPOLYLINE
5
176
100
AcDbEntity
8
0
100
AcDbPolyline
90
10
70
1
43
0.0
10
-15.03075511446249
20
61.127791150919386
42
0.25013900221976182
10
-14.615384498408419
20
61.349461757360501
42
0.14821573637027058
10
-14.531250000000002
20
61.627051174640719
10
-14.531250000000007
20
74.627051174640727
42
0.41421356237309631
10
-15.031250000000007
20
75.127051174640727
10
-28.03125
20
75.127051174640727
42
0.2501390022197319
10
-28.446620616054069
20
74.905380568199618
42
0.14821573637025826
10
-28.530755114462487
20
74.627791150919393
10
-28.530755114462487
20
61.627791150919379
42
0.41421356237309764
10
-28.030755114462487
20
61.127791150919386
0
LWPOLYLINE
5
177
100
AcDbEntity
8
0
100
AcDbPolyline
90
10
70
1
43
0.0
10
-45.987005114462491
20
61.127791150919386
42
0.25013900222084851
10
-45.571634498407256
20
61.349461757362214
42
0.14821573636922838
10
-45.487499999999983
20
61.627051174640719
10
-45.487499999999983
20
74.627051174640727
42
0.41421356237311063
10
-45.98749999999999
20
75.127051174640741
10
-58.98749999999999
20
75.127051174640727
42
0.2501390022208545
10
-59.402870616055225
20
74.905380568197899
42
0.14821573636922086
10
-59.487005114462491
20
74.627791150919393
10
-59.487005114462491
20
61.627791150919379
42
0.41421356237311585
10
-58.987005114462491
20
61.127791150919379
0
ENDSEC
0
SECTION
2
OBJECTS
0
DICTIONARY
5
C
100
AcDbDictionary
3
ACAD_GROUP
350
D
3
ACAD_MLINESTYLE
350
17
0
DICTIONARY
5
D
100
AcDbDictionary
0
DICTIONARY
5
1A
330
C
100
AcDbDictionary
0
DICTIONARY
5
17
100
AcDbDictionary
0
ENDSEC
0
EOF
